<svg xmlns="http://www.w3.org/2000/svg" width="1228.219" height="979.008" viewBox="0 0 1228.219 979.008">
  <g id="Group_40" data-name="Group 40" transform="translate(-327.715 -54.92)">
    <g id="Group_5" data-name="Group 5" transform="translate(-634.278 -95.743)">
      <g id="Group_41" data-name="Group 41">
        <path id="Rectangle_4" data-name="Rectangle 4" d="M78.171,5.345l1013.886,96.833a41.989,41.989,0,0,1,17.189,5.632,50.427,50.427,0,0,1,13.9,12.146,57.878,57.878,0,0,1,9.308,16.871,59.906,59.906,0,0,1,3.4,19.893V710.672a60.349,60.349,0,0,1-3.4,19.942,58.981,58.981,0,0,1-9.306,17.013,51.556,51.556,0,0,1-13.9,12.356,42.551,42.551,0,0,1-17.189,5.892L78.171,878a83.614,83.614,0,0,1-30.09-1.985,70.152,70.152,0,0,1-24.888-11.857A56.823,56.823,0,0,1,0,818.28V66.246A56.707,56.707,0,0,1,6.248,40.171,60.415,60.415,0,0,1,23.194,20.011,71.391,71.391,0,0,1,48.081,7.784a83.9,83.9,0,0,1,30.09-2.439Z" transform="translate(1005.596 197.303)" fill="#0045ff"/>
        <path id="Rectangle_4-2" data-name="Rectangle 4" d="M74.239-5.074a96.637,96.637,0,0,1,9.941.513L1162.611,101.73a54.091,54.091,0,0,1,22.523,7.6,63.947,63.947,0,0,1,17.517,15.8,73.963,73.963,0,0,1,11.423,21.38,77.489,77.489,0,0,1,4.143,25.045V779.642a78,78,0,0,1-4.144,25.1,75.217,75.217,0,0,1-11.4,21.51,65.162,65.162,0,0,1-17.433,15.985,54.663,54.663,0,0,1-22.406,7.928L84.285,973.26a96.27,96.27,0,0,1-35.664-2.439,83.178,83.178,0,0,1-30.074-14.787A73.517,73.517,0,0,1-10,897.691V72.239A74.222,74.222,0,0,1-2.315,39.178,76.413,76.413,0,0,1,18.464,13.645,84.566,84.566,0,0,1,48.472-1.573,96.543,96.543,0,0,1,74.239-5.074ZM72.906,953.934a76.285,76.285,0,0,0,9.058-.54L1160.5,830.3a34.47,34.47,0,0,0,14.1-5,45.284,45.284,0,0,0,12.124-11.117,55.349,55.349,0,0,0,8.406-15.846,58.084,58.084,0,0,0,3.092-18.7V171.554a57.562,57.562,0,0,0-3.082-18.614,54.088,54.088,0,0,0-8.365-15.652,44.066,44.066,0,0,0-12.08-10.9,33.9,33.9,0,0,0-14.1-4.763L82.17,15.338A76.6,76.6,0,0,0,53.814,17.7,64.658,64.658,0,0,0,30.873,29.33,56.228,56.228,0,0,0,15.587,48.093,54.126,54.126,0,0,0,10,72.2v825.57a52.747,52.747,0,0,0,20.783,42.448A63.3,63.3,0,0,0,53.675,951.47,76.237,76.237,0,0,0,72.906,953.934Z" transform="translate(971.994 155.737)" fill="#0045ff"/>
      </g>
      <g id="Group_4" data-name="Group 4" transform="translate(1127.29 331.013)">
        <path id="Exclusion_2" data-name="Exclusion 2" d="M833.83,567.553a124.438,124.438,0,0,1-31.447-3.984,79.446,79.446,0,0,1-26.915-12.5A61.287,61.287,0,0,1,765,541.386a64.026,64.026,0,0,1-8.068-12.016,56.29,56.29,0,0,1-5.081-14.419,76.648,76.648,0,0,1-1.509-16.891h41.745a36.131,36.131,0,0,0,3.576,16.755,31.343,31.343,0,0,0,9.474,11.123,41.2,41.2,0,0,0,13.875,6.315,65.822,65.822,0,0,0,16.479,2.06,86.454,86.454,0,0,0,12.359-.96,43.227,43.227,0,0,0,12.359-3.708,27.1,27.1,0,0,0,9.611-7.553,19.026,19.026,0,0,0,3.845-12.222,17.278,17.278,0,0,0-5.08-12.908,40.512,40.512,0,0,0-13.32-8.239,133.528,133.528,0,0,0-18.676-5.768c-6.939-1.644-14.054-3.492-21.146-5.493a188.588,188.588,0,0,1-21.422-6.723,73.952,73.952,0,0,1-18.676-10.3,48.719,48.719,0,0,1-13.329-15.8,48.17,48.17,0,0,1-5.079-22.933,59.216,59.216,0,0,1,1.613-14.111,46.036,46.036,0,0,1,4.841-12.119,58.741,58.741,0,0,1,16.891-18.539,73.944,73.944,0,0,1,23.62-10.986,100.919,100.919,0,0,1,26.366-3.576,125.383,125.383,0,0,1,29.524,3.433,73.99,73.99,0,0,1,25.13,11.123,56.571,56.571,0,0,1,9.853,8.754,57.685,57.685,0,0,1,7.581,10.883,51.2,51.2,0,0,1,4.841,13.217,72.808,72.808,0,0,1,1.613,15.758H867.061a34.8,34.8,0,0,0-3.708-14.555,24.354,24.354,0,0,0-8.375-9.063,35.587,35.587,0,0,0-11.947-4.669,73.92,73.92,0,0,0-14.693-1.373,50.752,50.752,0,0,0-10.442,1.1,28.036,28.036,0,0,0-9.475,3.844,23.962,23.962,0,0,0-7.009,6.866,18.511,18.511,0,0,0-2.748,10.442,17.706,17.706,0,0,0,2.2,9.339c1.458,2.367,4.369,4.586,8.651,6.591a111.025,111.025,0,0,0,17.852,6.042c7.672,2.033,17.7,4.62,29.8,7.69,3.648.73,8.776,2.07,15.243,3.984a73.369,73.369,0,0,1,19.363,9.2,58.779,58.779,0,0,1,16.616,16.891,39.819,39.819,0,0,1,5.253,12.05,63.429,63.429,0,0,1-3.467,40,54.555,54.555,0,0,1-15.519,19.912,74.988,74.988,0,0,1-25.542,13.046,121.3,121.3,0,0,1-35.276,4.674Zm-364.73,0a113.128,113.128,0,0,1-21.388-1.957,91.57,91.57,0,0,1-35.7-15.174,83.962,83.962,0,0,1-13.767-12.256,91.988,91.988,0,0,1-10.917-14.934,101.407,101.407,0,0,1-8.033-17.337,112.112,112.112,0,0,1-4.944-19.26,127.625,127.625,0,0,1-1.648-20.7,133.232,133.232,0,0,1,1.648-21.181,114.909,114.909,0,0,1,4.944-19.6,104.238,104.238,0,0,1,8.033-17.612,94.267,94.267,0,0,1,10.917-15.208,84.377,84.377,0,0,1,13.767-12.5,91.424,91.424,0,0,1,16.582-9.475,90.336,90.336,0,0,1,19.122-5.973A111.249,111.249,0,0,1,469.1,362.4a112.538,112.538,0,0,1,21.557,1.984,88.824,88.824,0,0,1,19.088,5.974,91.272,91.272,0,0,1,16.479,9.475,85.107,85.107,0,0,1,13.732,12.5,94.268,94.268,0,0,1,10.923,15.207,104.166,104.166,0,0,1,8.033,17.612,114.837,114.837,0,0,1,4.944,19.6,133.256,133.256,0,0,1,1.648,21.181,127.632,127.632,0,0,1-1.648,20.7,112.05,112.05,0,0,1-4.944,19.26,101.343,101.343,0,0,1-8.033,17.337,91.991,91.991,0,0,1-10.917,14.934,84.683,84.683,0,0,1-13.732,12.256,92.012,92.012,0,0,1-16.479,9.3,89.976,89.976,0,0,1-19.088,5.865,114.442,114.442,0,0,1-21.564,1.977Zm0-168.907a60.871,60.871,0,0,0-13.458,1.408,42.816,42.816,0,0,0-11.26,4.223A46.894,46.894,0,0,0,427.9,419.381a66.49,66.49,0,0,0-9.2,21.56,107.757,107.757,0,0,0-2.884,24.993,100.238,100.238,0,0,0,2.884,24.032,65.25,65.25,0,0,0,9.2,21.01,47.376,47.376,0,0,0,16.479,14.968,42.841,42.841,0,0,0,11.261,4.223,65.035,65.035,0,0,0,26.915,0,42.841,42.841,0,0,0,11.26-4.223A47.373,47.373,0,0,0,510.3,510.976a65.245,65.245,0,0,0,9.2-21.01,100.3,100.3,0,0,0,2.884-24.032,107.831,107.831,0,0,0-2.884-24.993,66.492,66.492,0,0,0-9.2-21.56,46.9,46.9,0,0,0-16.479-15.105,42.818,42.818,0,0,0-11.261-4.223,60.867,60.867,0,0,0-13.459-1.408ZM681.4,563.157H638.279V403.313H579.506V367.06H740.174v36.253H681.4Zm-398.511,0H187.862v-193.5a52.335,52.335,0,0,1-13.3,1.686,65.636,65.636,0,0,1-16.392-2.2,89.452,89.452,0,0,1-15.769-5.75,105.1,105.1,0,0,1-15.3-8.943,119.877,119.877,0,0,1-16.061-13.27,70.19,70.19,0,0,1-10.808-13.648,68.969,68.969,0,0,1-6.294-13.708,51.63,51.63,0,0,1-2.525-13.459A61.522,61.522,0,0,1,95.3,275.235a93.585,93.585,0,0,1,10.378-20.169,63.31,63.31,0,0,1,14.372-14.807,64.133,64.133,0,0,1,18.524-9.317,126.775,126.775,0,0,1,38.39-5.436c2.97,0,6.029.079,9.095.236l.253-15.2c.073-6.008.336-11.271.782-15.661.143-1.476.336-2.932.556-4.329h-3.392V3.653h41.1v142.3a47.283,47.283,0,0,0-11.276,4.454,47.872,47.872,0,0,0-15.97,14.794A69.937,69.937,0,0,0,193,173.676a56.749,56.749,0,0,0-3.711,9.455,57.613,57.613,0,0,0-1.648,7.425h37.709V145.951a48.623,48.623,0,0,1,8.36-1.332c1.187-.086,2.413-.129,3.641-.129a60.524,60.524,0,0,1,18.253,2.991,92.457,92.457,0,0,1,42.473,30.157,61.921,61.921,0,0,1,4.759,7.6v5.316h2.422a51.486,51.486,0,0,0-2.422-5.316V38.207H246.822V3.653H399.959V38.207H343.938V190.558H305.263a45.136,45.136,0,0,1,2.048,6.842A43.619,43.619,0,0,1,307.1,217a54.265,54.265,0,0,1-8.4,18.225,58.134,58.134,0,0,1-12.136,12.8,55.95,55.95,0,0,1-15.306,8.3A100.8,100.8,0,0,1,252,260.912,180.334,180.334,0,0,1,228,262.606l1.525,61.332a87.766,87.766,0,0,0,15.565-11.545,85.559,85.559,0,0,0,12.5-13.691l34.575,24.209a107.323,107.323,0,0,1-12.536,14.861A105.37,105.37,0,0,1,264.674,350a159.149,159.149,0,0,1-32.909,17.064h48.378a122.7,122.7,0,0,1,25.542,2.472,55.4,55.4,0,0,1,19.775,8.1,37.849,37.849,0,0,1,12.771,14.967c3,6.2,4.532,13.958,4.532,23.07a51.926,51.926,0,0,1-1.682,13.589,36.934,36.934,0,0,1-5.047,11.123,42.447,42.447,0,0,1-8.342,8.995,58.077,58.077,0,0,1-11.569,7.209,55.789,55.789,0,0,1,15.826,7.175,41.947,41.947,0,0,1,11.226,11.089,49.174,49.174,0,0,1,6.695,14.385,62.571,62.571,0,0,1,2.231,17.062,63.371,63.371,0,0,1-1.442,13.835,47.276,47.276,0,0,1-4.326,11.844A50.266,50.266,0,0,1,330.815,549.7a68.957,68.957,0,0,1-22.246,10.156,100.715,100.715,0,0,1-25.681,3.3Zm-51.91-87.332v53.832h46.141a57.815,57.815,0,0,0,12.084-1.236,29.786,29.786,0,0,0,10.156-4.12,20.829,20.829,0,0,0,7.009-7.827,27.083,27.083,0,0,0,2.609-12.635,35.4,35.4,0,0,0-2.129-12.943,19.641,19.641,0,0,0-6.386-8.617,29.884,29.884,0,0,0-9.887-4.841,46.042,46.042,0,0,0-12.629-1.614ZM187.957,369.64h0l.416,23.148,42.607,29.825v23.816h43.669a37.831,37.831,0,0,0,10.505-1.373,26.524,26.524,0,0,0,8.44-4.12,16.857,16.857,0,0,0,5.562-7.209,27.794,27.794,0,0,0,1.86-10.642,22.887,22.887,0,0,0-2.472-11.259,18.36,18.36,0,0,0-6.591-6.866,27.884,27.884,0,0,0-9.475-3.433,63.135,63.135,0,0,0-11.123-.961H230.98v14.488l-.379-47.562c.368-.136.76-.286,1.163-.429h-43.9v2.6l.047-.013.046-.011Zm.183-107.1c-11.92.481-21.256,2.332-27.751,5.5a42.341,42.341,0,0,0-16.234,13.986,31.529,31.529,0,0,0-4.632,10.472,32.1,32.1,0,0,0-.657,12.216,32.548,32.548,0,0,0,4.487,12.288,35.657,35.657,0,0,0,10.334,10.767,42.214,42.214,0,0,0,10.951,5.579,37,37,0,0,0,11.608,1.86,43.292,43.292,0,0,0,12.159-1.831Zm58.975-84.085c-.678,0-1.363.034-2.038.1a16.1,16.1,0,0,0-7.225,2.528,22.3,22.3,0,0,0-6.052,6.047,28.781,28.781,0,0,0-4.228,11.379,84.631,84.631,0,0,0-.964,17.4l.054,10.013,11.547-1.059a47.89,47.89,0,0,0,17.334-4.28,27.608,27.608,0,0,0,10.442-8.686,23.843,23.843,0,0,0,3.783-8,16.626,16.626,0,0,0,.026-7.827,24.979,24.979,0,0,0-22.684-17.619Zm-16.073,244.2h0l-.057-.04v-7.564l.06,7.6ZM489.226,194.742a118.612,118.612,0,0,1-29.972-3.795A75.712,75.712,0,0,1,433.6,179.036a58.345,58.345,0,0,1-9.98-9.226,61.016,61.016,0,0,1-7.69-11.452,53.658,53.658,0,0,1-4.843-13.744,73.079,73.079,0,0,1-1.442-16.1h39.789a34.429,34.429,0,0,0,3.4,15.968,29.861,29.861,0,0,0,9.032,10.6,39.267,39.267,0,0,0,13.219,6.021,62.759,62.759,0,0,0,15.712,1.97,82.04,82.04,0,0,0,11.778-.917,41.157,41.157,0,0,0,11.781-3.533,25.825,25.825,0,0,0,9.155-7.2,18.148,18.148,0,0,0,3.665-11.65,16.468,16.468,0,0,0-4.843-12.3,38.586,38.586,0,0,0-12.7-7.853,127.538,127.538,0,0,0-17.8-5.5c-6.572-1.555-13.353-3.317-20.156-5.235a179.656,179.656,0,0,1-20.417-6.408,70.415,70.415,0,0,1-17.8-9.816,46.417,46.417,0,0,1-12.7-15.051,45.9,45.9,0,0,1-4.843-21.859,56.48,56.48,0,0,1,1.538-13.446,43.852,43.852,0,0,1,4.616-11.551,55.985,55.985,0,0,1,16.1-17.68A70.478,70.478,0,0,1,460.689,2.6,96.2,96.2,0,0,1,485.82-.8a119.486,119.486,0,0,1,28.141,3.276,70.521,70.521,0,0,1,23.952,10.6,53.887,53.887,0,0,1,16.622,18.716,48.8,48.8,0,0,1,4.613,12.6,69.349,69.349,0,0,1,1.539,15.02H520.9a33.213,33.213,0,0,0-3.533-13.875A23.255,23.255,0,0,0,509.38,36.9a33.9,33.9,0,0,0-11.386-4.449,70.4,70.4,0,0,0-14-1.309,48.466,48.466,0,0,0-9.947,1.047,26.728,26.728,0,0,0-9.03,3.665,22.865,22.865,0,0,0-6.683,6.55,17.663,17.663,0,0,0-2.618,9.947,16.88,16.88,0,0,0,2.093,8.9c1.389,2.259,4.164,4.371,8.247,6.283a105.837,105.837,0,0,0,17.022,5.76c7.219,1.914,16.775,4.38,28.4,7.33,3.466.692,8.354,1.97,14.528,3.795a70.029,70.029,0,0,1,18.453,8.77,56.026,56.026,0,0,1,15.836,16.1A37.928,37.928,0,0,1,565.3,120.77a60.445,60.445,0,0,1-3.3,38.121,51.978,51.978,0,0,1-14.791,18.972A71.474,71.474,0,0,1,522.86,190.3a115.664,115.664,0,0,1-33.634,4.444ZM90.545,190.558H-.03V3.653H87.925A116.972,116.972,0,0,1,112.27,6.009a52.828,52.828,0,0,1,18.848,7.724A36.09,36.09,0,0,1,143.289,28c2.861,5.9,4.319,13.3,4.319,21.989A49.433,49.433,0,0,1,146,62.948a35.205,35.205,0,0,1-4.806,10.6,40.442,40.442,0,0,1-7.952,8.573,55.322,55.322,0,0,1-11.026,6.866A53.174,53.174,0,0,1,137.3,95.824,40,40,0,0,1,148,106.392a46.88,46.88,0,0,1,6.38,13.711,59.6,59.6,0,0,1,2.12,16.269,60.426,60.426,0,0,1-1.375,13.187,45.148,45.148,0,0,1-4.123,11.289,47.931,47.931,0,0,1-14.791,16.879,65.764,65.764,0,0,1-21.195,9.69A95.983,95.983,0,0,1,90.545,190.558ZM41.067,107.315v51.307H85.047a55.106,55.106,0,0,0,11.517-1.179,28.364,28.364,0,0,0,9.687-3.927,19.854,19.854,0,0,0,6.674-7.46,25.811,25.811,0,0,0,2.486-12.042,33.759,33.759,0,0,0-2.028-12.336,18.739,18.739,0,0,0-6.087-8.214,28.489,28.489,0,0,0-9.424-4.613,43.869,43.869,0,0,0-12.042-1.539Zm0-71.726V79.305H82.693c7.3,0,13.372-1.761,18.062-5.234a16.072,16.072,0,0,0,5.3-6.866,26.48,26.48,0,0,0,1.768-10.143,21.832,21.832,0,0,0-2.356-10.728,17.515,17.515,0,0,0-6.283-6.544,26.636,26.636,0,0,0-9.03-3.273,60.254,60.254,0,0,0-10.6-.915Z" transform="translate(0.03 0.8)" fill="#fff"/>
      </g>
    </g>
  </g>
</svg>
